<?xml version="1.0" encoding="UTF-8"?>
<svg width="74px" height="68px" viewBox="0 0 74 68" version="1.1" xmlns="http://www.w3.org/2000/svg" xmlns:xlink="http://www.w3.org/1999/xlink">
    <!-- Generator: Sketch 52.6 (67491) - http://www.bohemiancoding.com/sketch -->
    <title>logo</title>
    <desc>Created with Sketch.</desc>
    <g id="Mobile" stroke="none" stroke-width="1" fill="none" fill-rule="evenodd">
        <g id="Mobile-Homepage-V2" transform="translate(-10.000000, -10.000000)">
            <g id="logo" transform="translate(10.000000, 10.000000)">
                <rect id="Rectangle" fill="#EA2700" x="0" y="0" width="74" height="68"></rect>
                <path d="M2.59063248,32.933183 L2.59063248,7.45008 L7.70864957,7.45008 L7.70864957,28.0545333 L13.0852239,28.0545333 L13.0852239,32.9340691 L2.59063248,32.9340691 L2.59063248,32.933183 Z M15.6752239,32.933183 L15.6752239,7.45008 L20.7958974,7.45008 L20.7958974,32.933183 L15.6752239,32.933183 Z M33.7104786,32.933183 L23.6825299,32.933183 L23.6825299,7.45008 L32.5372308,7.45008 C36.3916821,7.45008 38.6930188,10.4538255 38.6930188,14.4029976 C38.6930188,17.1905442 37.2054291,18.9307673 35.638147,19.5616424 C37.4462769,20.1588473 39.2473231,22.0009673 39.2473231,25.6843212 C39.2473231,30.9599261 36.8441573,32.932297 33.7104786,32.932297 L33.7104786,32.933183 Z M31.4215385,11.6978545 L28.8536752,11.6978545 L28.8536752,17.5369939 L31.480865,17.5369939 C32.5655658,17.5369939 33.4536923,16.5596691 33.4536923,14.8672933 C33.4536923,13.0092242 32.6266632,11.6978545 31.4215385,11.6978545 Z M31.450759,21.7510982 L28.8536752,21.7510982 L28.8536752,28.5870558 L31.5100855,28.5870558 C32.6549983,28.5870558 33.7556376,27.9225103 33.7556376,25.2377467 C33.7556376,23.4833467 32.9250667,21.7555285 31.448988,21.7555285 L31.450759,21.7510982 Z M11.6844103,39.7771152 L11.6844103,60.5818182 L6.56462222,60.5818182 L6.56462222,39.7771152 L2.46666667,39.7771152 L2.46666667,35.0987152 L15.7823658,35.0987152 L15.7823658,39.7771152 L11.6844103,39.7771152 Z M23.3726154,60.5818182 L22.6686667,56.1692364 L19.0515214,56.1692364 L18.410441,60.5818182 L13.8006838,60.5818182 L18.5069573,35.0987152 L23.9490564,35.0987152 L29.1724444,60.5818182 L23.3726154,60.5818182 Z M20.6188034,44.5884242 L19.5314462,52.6187915 L22.0922256,52.6187915 L20.6188034,44.5884242 Z M65.7388171,60.5818182 L65.0348684,56.1692364 L61.4221504,56.1692364 L60.7819556,60.5818182 L56.1704274,60.5818182 L60.8758154,35.0987152 L66.3170291,35.0987152 L71.5333333,60.5818182 L65.7388171,60.5818182 Z M62.9850051,44.5884242 L61.8976479,52.6187915 L64.4584274,52.6187915 L62.9858906,44.5893103 L62.9850051,44.5884242 Z M36.4704889,39.7771152 L36.4704889,60.5818182 L31.3489299,60.5818182 L31.3489299,39.7771152 L27.2509744,39.7771152 L27.2509744,35.0987152 L40.5684444,35.0987152 L40.5684444,39.7771152 L36.4687179,39.7771152 L36.4704889,39.7771152 Z M42.3801162,60.5818182 L42.3801162,35.0987152 L53.9177915,35.0987152 L53.9177915,39.9100242 L47.5016752,39.9100242 L47.5016752,45.2192994 L53.2253538,45.2192994 L53.2253538,49.8976994 L47.5016752,49.8976994 L47.5016752,55.7040545 L54.5207966,55.7040545 L54.5207966,60.5818182 L42.3810017,60.5818182 L42.3801162,60.5818182 Z M41.2874462,32.9296388 L41.2874462,7.44653576 L52.8251214,7.44653576 L52.8251214,12.2578448 L46.4090051,12.2578448 L46.4090051,17.56712 L52.1326838,17.56712 L52.1326838,22.24552 L46.4090051,22.24552 L46.4090051,28.0518752 L53.4281265,28.0518752 L53.4281265,32.9296388 L41.2883316,32.9296388 L41.2874462,32.9296388 Z M61.0493675,11.6889939 L61.0493675,17.6468655 L62.8468718,17.6468655 C64.6355214,17.6468655 65.4023385,15.8995539 65.4023385,14.4517309 C65.4023385,13.3973188 64.6851077,12.1249358 63.1266803,11.6889939 L61.0493675,11.6889939 Z M55.7312342,7.41818182 L64.4247795,7.41818182 C68.5360171,7.41818182 70.1998154,11.4674788 70.1998154,14.7919782 C70.1998154,15.4627261 70.2210667,15.8065176 70.0652239,16.850297 C69.797812,18.6091273 69.1487624,19.7096145 67.8630598,21.1565515 C67.1679658,21.9469176 66.1806667,22.3146327 65.3784308,22.6894364 L70.8506359,32.932297 L65.431559,32.932297 L61.0511385,24.2533333 L61.0511385,32.933183 L55.7321197,32.933183 L55.7321197,7.41818182 L55.7312342,7.41818182 Z" id="Shape" fill="#FFFFFF" fill-rule="nonzero"></path>
            </g>
        </g>
    </g>
</svg>